<?xml version="1.0" encoding="UTF-8"?>
<svg xmlns="http://www.w3.org/2000/svg" viewBox="0 0 512 512" fill="#3498db">
  <path d="M416 32a32 32 0 1 1 0 64 32 32 0 1 1 0-64zM340.7 160c7.2 0 13.3 5.6 13.3 12.8 0 7-5.9 12.7-13.1 12.8H224.1c3 24.8 13.5 41.4 35 41.4h85.5c7.2 0 13.2 5.6 13.2 12.8 0 7-5.8 12.7-13 12.8H259.1c-43.5 0-61.6-37.7-64.2-79.7H171.6c-7.2 0-13.2-5.8-13.2-12.8 0-7.2 6-12.8 13.2-12.8H195c2.2-42.3 19.8-83.4 64.2-83.4H349c7.2 0 13.2 5.6 13.2 12.8 0 7-5.9 12.7-13.1 12.8h-89.7c-21.2 0-33.1 16.7-36.2 41.4h117.5zM176 96c26.5 0 48 21.5 48 48v288c0 26.5-21.5 48-48 48H80c-26.5 0-48-21.5-48-48V144c0-26.5 21.5-48 48-48h96zm240 240c26.5 0 48 21.5 48 48v96c0 26.5-21.5 48-48 48H304c-26.5 0-48-21.5-48-48V384c0-26.5 21.5-48 48-48h112zm-80 96c-8.8 0-16 7.2-16 16s7.2 16 16 16h64c8.8 0 16-7.2 16-16s-7.2-16-16-16H336z"/>
</svg>