<?xml version="1.0" encoding="UTF-8"?>
<svg xmlns="http://www.w3.org/2000/svg" viewBox="0 0 512 512" fill="#3498db">
  <path d="M176 96c17.7 0 32-14.3 32-32s-14.3-32-32-32-32 14.3-32 32 14.3 32 32 32zm224 224H32c-17.7 0-32 14.3-32 32s14.3 32 32 32h110.3l-31.2 31.2-45.3 45.3c-12.5 12.5-12.5 32.8 0 45.3s32.8 12.5 45.3 0L157.5 459c4.2-4.2 7.3-9.4 8.9-15 9.9-34.8 26.8-67.8 49.9-95.1 11.4-13.5 23.9-26 37.5-37.2 13.4-11 27.4-20.7 42.2-28.8.8 15.9 8.6 30.9 22.2 40.9 11.2 8.4 24.9 13.2 38.9 13.2h42.9c7.7 0 14-6.3 14-14v-69.9c0-6.6-4.5-12.4-11-13.9l-48.9-11.3c-41.6-9.6-84.5-9-125.7 1.8-34.4 9-66.9 24.9-96.1 46.8-16.8 12.6-32.4 26.8-46.3 42.4-11.9 13.4-19.1 30.7-19.4 49H64v-96h32v-64H32c-17.7 0-32 14.3-32 32s14.3 32 32 32h5.1c3.5 5.9 7.3 11.7 11.4 17.3-12.3 13.4-22.9 28.3-31.3 44.3-5.9 11.4-2.1 25.4 8.7 32.3 11.9 7.6 27.6 3.5 34.3-9.4 6.8-13.1 15.3-25.2 25.2-36.1 19.5-21.4 43.6-38.6 70.5-50.5 25.7-11.4 53-17.9 80.6-19.2 4.2-.2 9.3-.2 13.2 1 18.4 2.2 22.8 17.1 24.3 27.5-16.6 13.8-30.7 29.9-42.2 47.5-15.7 23.8-27.1 50.1-33.9 77.8l-4.7 19.3H175c-17.7 0-32 14.3-32 32s14.3 32 32 32h192c17.7 0 32-14.3 32-32s-14.3-32-32-32h-34.9c-15.1 0-29.3-7.2-38.2-19.6l228.2-228.2c12.5-12.5 12.5-32.8 0-45.3s-32.8-12.5-45.3 0L442.7 126v-.1l-9 9c-10.4 10.3-12.5 10.1-22.2 11.9-6.7 1.3-13.4 2.5-20.3 2.5-14.8 0-29.5-2.4-43.8-6.8-11.2-3.5-11.8-11.3-11.4-14.7.3-2.9 1.3-4.5 2.7-7-10.6 2.3-21.5 3.1-32.4 2.4-14.8-.9-29.4-4.3-43.3-10-20.8-8.6-37.9-22.9-52.2-41-2.4-3-4.8-6.9-4.9-10.9 0-3.9 2.1-7.2 5.3-8.8 9.7-5 19.9-9 30.1-12.9 6.4-2.5 16.9-4.5 21.7-3.2l52.7 52.7c6.3 6.2 16.4 6.2 22.6 0 6.2-6.2 6.2-16.3 0-22.5l-52.7-52.7c-3.6-3.6-6.4-7.9-8.2-12.7-5.9-15.4-5.4-32.9 2.1-47.8 11.4-22.3 36.9-32.6 60.5-24.5 12.9 4.4 23.4 14 29.8 26.4 8.2 16 8.2 34.9.3 51-33.9 68.9-23.8 149.3 26.1 207.3 13 15.1 28.5 27.8 46 37.2 13.8 7.4 29.2 12.2 44.9 14.1 9.8 1.2 19.5 1.7 28.9.7 10.6-1.1 20.1-5.3 28.8-11.1 10.2-6.8 19.3-15.2 27.2-24.6 9.4-11.2 23.9-14.8 36.8-10.4 14.8 5.1 23.6 19.8 20.5 34.8-1.3 6.3-4.5 11.7-9.2 16-47.7 47.5-95.3 95.1-142.9 142.7-2.6 2.6-5.8 4.6-9.2 5.8-3.2 1.1-6.6 1.6-10 1.6h-96c-17.6 0-32 14.3-32 32s14.4 32 32 32h96c9.7 0 19.3-1.9 28.2-5.5 10.2-4.2 19.5-10.7 27.3-18.5 47.6-47.6 95.3-95.1 142.9-142.8 10.2-10.2 17.8-22.6 22.4-36.5 8.8-27.1-1-56.4-24.2-74.5-18.7-14.5-42.9-19.1-65.2-12.3-16.6 5.2-30.9 16.1-40.5 30.6-19.6 17.2-47.5 27.2-75 19.7-30.3-8.2-54.9-33.3-66.6-62.3-11.8-29.3-13.9-62-7.9-92.9 15.3 13.8 33.9 23.1 54.1 26.4 38.4 6.4 79.5-7.5 108.9-34.9 27.4-25.5 41.5-61.3 38.4-97.6-2.4-27.9-14.8-54.2-35.9-74.8-15.2-14.9-33.9-25.3-54.8-30.4C388.5 2.1 361.5.2 339 9.7c-26.5 11.1-47.1 33.7-55.6 61-5.7 18.3-6 37.6-1.6 56.3-25.6-17.1-30.7-52.3-11-76.7 5.5-6.8 4.4-16.8-2.5-22.3-6.8-5.5-16.8-4.4-22.3 2.5-33.2 40.9-26.6 101.2 14.4 134.5 2.2 1.8 4.5 3.4 6.9 5-2.5 5.1-4 10.7-4.4 16.6-.9 12.7 2.8 25.7 11.2 35.7.7.8 1.6 1.6 2.4 2.3-5.7 4.3-9.5 10.6-10.5 17.9-11.2 0-22.5.7-33.6 2.3-11.8 1.7-11.3-3.9-37.6-13.4-15.5-5.6-32-8.4-48.6-9.2-60.2-2.9-112.7 35.5-134.6 89.5-3.6 8.9 1 19 10.1 21.5 7.9 2.3 16.2-1.9 19.1-9.4 16.5-40.6 55.2-69.4 99.9-74.3 21.5-2.4 43.1-.2 63.4 7.8 3.4 1.9 6.7 4 10.2 5.8 19.6 10 41.8 16.5 64.3 17.1 4.4.1 8.9.2 13.3 0 28.2-1.1 55.7-11.2 79.6-26-10.5 50-3.7 103.8 21.3 148.5 20.5 36.7 53.8 65.8 93.3 79.7 41.1 14.4 87.4 11.7 126.5-9.7z"/>
</svg>