<?xml version="1.0" encoding="UTF-8"?>
<svg xmlns="http://www.w3.org/2000/svg" viewBox="0 0 512 512" fill="#3498db">
  <path d="M288 96c0 35.3-28.7 64-64 64s-64-28.7-64-64 28.7-64 64-64 64 28.7 64 64zM208 384v96h96V384h97.8c19 0 33.8-17.1 31.6-35.9-9.1-79.1-79.3-138.1-159.4-138.1-80.1 0-150.3 59-159.4 138.1-2.2 18.9 12.6 35.9 31.6 35.9H208zm-48 136c0 13.3 10.7 24 24 24h144c13.3 0 24-10.7 24-24s-10.7-24-24-24H184c-13.3 0-24 10.7-24 24zM0 144c0 26.5 21.5 48 48 48h16c-5.6 19.2-8.7 39.4-8.9 60.3-.1 14.2 11.4 25.7 25.6 25.7h.4c13.9 0 25.3-11.1 25.6-25l1.2-56.4c1.9-45.5 22.1-84.4 54.4-109.5 20.4-15.9 48.8-25.1 78-25.1h160.2c34.5 0 67.2 12.5 92.7 35.4l75 67.5c7.8 7 8.4 19 1.4 26.8-7 7.7-19 8.4-26.8 1.4l-75-67.5c-18.3-16.5-41.6-25.5-66.1-25.5h-30.1v24c0 13.3-10.7 24-24 24s-24-10.7-24-24v-24h-49.8c-29.9 0-57.2 15.4-73 41.2-4.7 7.7-13.1 12.2-21.7 11.3C132.5 140.7 133 128.6 136 117c3.8-15 11.2-27.9 21.1-37.7 9.9-9.8 22.5-16.9 36.9-20.7V48c0-8.8 7.2-16 16-16h16c8.8 0 16 7.2 16 16s-7.2 16-16 16h-8v6.4c-1.3.2-2.6.5-3.9.8 20.9 14.7 34.5 40.1 34.9 68.8h16c-4.4-39.7-29.8-72.9-65.2-87.6C241.3 60.9 243.1 80 243.1 96h16c0-35.2-9.5-68.1-26.1-96.4-2.6-4.5-4.8-9.3-6.4-14.3C221.1 15.4 234.1 0 250.7 0c20.3 0 36.8 16.5 36.8 36.8 0 7.7-2.3 15.1-6.7 21.3C310.3 97.6 328 150.7 328 208v16h16c0-60.4-15.2-117-41.9-166.6l-1.5-2.7c-0-0-0-0-0-0-8.8-16.8-2.9-37.5 13.3-47.1 0.9-0.5 1.8-1 2.7-1.4 20-9.6 43.7-1.2 53.2 18.7 0 0 0 0.1 0.1 0.1 1 2.1 2.1 4.3 3.1 6.4 0.3 0.7 0.6 1.3 0.9 2C414.6 109.1 440 176.6 440 250.9V280h18.4c15.2 0 28.7-7 37.6-17.9 7.9-9.8 12-22.5 12-35.8 0-4.7.6-9.3 1.7-13.7 3.5-14.5 16.1-25.7 31.6-27.6 10.1-1.2 19.3 1.6 26.4 7.3 7.1 5.7 12 14.1 12.8 24.2 0.3 3.7-0.1 7.4-1.1 10.8-16.5 58.2-81.7 139.7-128.8 181.7-22.2 19.8-51.3 31-81.7 31h-51.1l12.8 43.9c4.5 15.5 2.9 32.1-4.6 46.4-7.4 14.3-20.1 25.1-35.6 29.6-6.1 1.8-12.4 2.7-18.7 2.7-6.4 0-10.9-0.9-16.3-2.7l-161.9-55.1c-12.3-4.2-20.3-15.8-20.3-28.7 0-16.8 13.6-30.5 30.5-30.5 3.3 0 6.6 0.5 9.7 1.5l108.7 37-11.7-39.9c-1.2-4.1-1.8-8.4-1.8-12.7 0-4.9 0.7-9.7 2.1-14.2L164 316.7c4.3-13.8 16.5-23.2 31-23.2 17.7 0 32 14.3 32 32 0 3.6-0.6 7.1-1.7 10.3L208 384H96.8c-40.3 0-74 33.9-67.6 73.9 16.2 99.4 96.6 173.9 189 188.9 16.5 2.9 32.9-8.2 37.7-24.4 1.2-4.1 1.9-8.4 1.9-12.8V512H112C50.1 512 0 461.9 0 400v-25.6c0-14.6 3.8-29 11.2-41.7l30.9-53.2c2.8-4.8 4-10.4 3.3-16-1.5-12.2-3.3-24.2-5.5-36-1.8-9.8-10.4-16.8-20.4-16.4-26.1.9-48.9-17.1-54.9-42.8-2.9-12.2-1.8-24.6 3-35.9 3.5-8.3 12.5-13.2 21.8-12.1 5.1 0.6 10.2 1.3 15.3 2.1V144H0z"/>
</svg>