<?xml version="1.0" encoding="UTF-8"?>
<svg xmlns="http://www.w3.org/2000/svg" viewBox="0 0 512 512" fill="#3498db">
  <circle cx="256" cy="256" r="230" fill="none" stroke="#3498db" stroke-width="16"/>
  <path d="M320 128H192c-17.7 0-32 14.3-32 32v192c0 17.7 14.3 32 32 32h128c17.7 0 32-14.3 32-32V160c0-17.7-14.3-32-32-32zm-64 224c-35.3 0-64-28.7-64-64s28.7-64 64-64 64 28.7 64 64-28.7 64-64 64zm0-96c-17.7 0-32 14.3-32 32s14.3 32 32 32 32-14.3 32-32-14.3-32-32-32z"/>
  <path d="M400 192c0-44.2-35.8-80-80-80v32c26.5 0 48 21.5 48 48s-21.5 48-48 48v32c44.2 0 80-35.8 80-80z"/>
  <path d="M432 192c0-61.9-50.1-112-112-112v32c44.2 0 80 35.8 80 80s-35.8 80-80 80v32c61.9 0 112-50.1 112-112z"/>
  <path d="M160 152c0-13.3-10.7-24-24-24s-24 10.7-24 24v208c0 13.3 10.7 24 24 24s24-10.7 24-24V152z"/>
</svg>