<?xml version="1.0" encoding="UTF-8"?>
<svg xmlns="http://www.w3.org/2000/svg" viewBox="0 0 512 512" fill="#3498db">
  <circle cx="256" cy="256" r="230" fill="none" stroke="#3498db" stroke-width="16"/>
  <path d="M256 125c-72.9 0-132 59.1-132 132s59.1 132 132 132 132-59.1 132-132-59.1-132-132-132zm0 26.4c58.3 0 105.6 47.3 105.6 105.6S314.3 362.6 256 362.6 150.4 315.3 150.4 257 197.7 151.4 256 151.4z"/>
  <path d="M256 175c-45.3 0-82 36.7-82 82s36.7 82 82 82 82-36.7 82-82-36.7-82-82-82zm0 42c22.1 0 40 17.9 40 40s-17.9 40-40 40-40-17.9-40-40 17.9-40 40-40z"/>
  <path d="M335 125l-79 40-79-40v82l79 40 79-40z"/>
  <path d="M335 267l-79 40-79-40v82l79 40 79-40z"/>
</svg>