<?xml version="1.0" encoding="UTF-8"?>
<svg xmlns="http://www.w3.org/2000/svg" viewBox="0 0 512 512" fill="#3498db">
  <circle cx="256" cy="256" r="230" fill="none" stroke="#3498db" stroke-width="16"/>
  <path d="M128 144h64v224h-64zM224 144h64v224h-64zM320 144h64v224h-64z"/>
  <path d="M112 112h288v32H112zM112 368h288v32H112z"/>
  <path d="M160 176c17.7 0 32 14.3 32 32s-14.3 32-32 32-32-14.3-32-32 14.3-32 32-32z"/>
  <path d="M256 240c17.7 0 32 14.3 32 32s-14.3 32-32 32-32-14.3-32-32 14.3-32 32-32z"/>
  <path d="M352 304c17.7 0 32 14.3 32 32s-14.3 32-32 32-32-14.3-32-32 14.3-32 32-32z"/>
  <path d="M144 192h224M144 256h224M144 320h224"/>
</svg>