<?xml version="1.0" encoding="UTF-8"?>
<svg xmlns="http://www.w3.org/2000/svg" viewBox="0 0 512 512" fill="#3498db">
  <circle cx="256" cy="256" r="220" fill="none" stroke="#3498db" stroke-width="16"/>
  <path d="M256 120c-75.1 0-136 60.9-136 136s60.9 136 136 136 136-60.9 136-136-60.9-136-136-136zm0 36c55.2 0 100 44.8 100 100s-44.8 100-100 100-100-44.8-100-100 44.8-100 100-100z"/>
  <path d="M256 180c-42.1 0-76 33.9-76 76s33.9 76 76 76 76-33.9 76-76-33.9-76-76-76zm0 36c22.1 0 40 17.9 40 40s-17.9 40-40 40-40-17.9-40-40 17.9-40 40-40z"/>
  <path d="M120 120h40v272h-40z"/>
  <path d="M352 120h40v272h-40z"/>
  <path d="M184 120h144v40H184z"/>
  <path d="M184 352h144v40H184z"/>
  <path d="M256 176l80 40-80 40v-80z"/>
  <path d="M256 256l80 40-80 40v-80z"/>
  <path d="M184 176l-48 60 48 60v-120z"/>
</svg>